HIERARCHY
ROOT Hips
{
	OFFSET 0.000000 35.082581 0.000000
	CHANNELS 6 Xposition Yposition Zposition Xrotation Yrotation Zrotation 
	JOINT Spine
	{
		OFFSET 0.000000 6.876099 0.125700
		CHANNELS 3 Xrotation Yrotation Zrotation
		JOINT Spine1
		{
			OFFSET 0.000000 5.730043 0.104720
			CHANNELS 3 Xrotation Yrotation Zrotation
			JOINT Spine1_split
			{
				OFFSET 0.000000 5.730043 0.104720
				CHANNELS 3 Xrotation Yrotation Zrotation
				JOINT Spine2
				{
					OFFSET 0.000000 5.730043 0.104720
					CHANNELS 3 Xrotation Yrotation Zrotation
					JOINT Neck
					{
						OFFSET 0.000000 10.314075 0.188496
						CHANNELS 3 Xrotation Yrotation Zrotation
						JOINT Head
						{
							OFFSET 0.000000 7.643700 -2.377400
							CHANNELS 3 Xrotation Yrotation Zrotation
							JOINT HeadTop_End
							{
								OFFSET 0.000000 43.788605 -13.619600
								CHANNELS 3 Xrotation Yrotation Zrotation
								End Site
								{
									OFFSET 0.000000 0.000000 0.000000
								}
							}
						}
					}
					JOINT LeftShoulder
					{
						OFFSET 2.196100 4.412489 0.087492
						CHANNELS 3 Xrotation Yrotation Zrotation
						JOINT LeftShoulder_split
						{
							OFFSET 2.196100 4.412489 0.087492
							CHANNELS 3 Xrotation Yrotation Zrotation
							JOINT LeftArm
							{
								OFFSET 8.771219 -2.981674 -0.026999
								CHANNELS 3 Xrotation Yrotation Zrotation
								JOINT LeftForeArm
								{
									OFFSET 8.512804 0.000000 -0.000000
									CHANNELS 3 Xrotation Yrotation Zrotation
									JOINT LeftHand
									{
										OFFSET 18.484802 0.000000 -0.000000
										CHANNELS 3 Xrotation Yrotation Zrotation
										JOINT LeftHandThumb1
										{
											OFFSET 2.499420 -1.158070 2.653252
											CHANNELS 3 Xrotation Yrotation Zrotation
											JOINT LeftHandThumb2
											{
												OFFSET 2.370079 -1.368366 1.368366
												CHANNELS 3 Xrotation Yrotation Zrotation
												JOINT LeftHandThumb3
												{
													OFFSET 2.676727 -1.545410 1.545409
													CHANNELS 3 Xrotation Yrotation Zrotation
													JOINT LeftHandThumb4
													{
														OFFSET 1.692226 -0.977005 0.977007
														CHANNELS 3 Xrotation Yrotation Zrotation
														End Site
														{
															OFFSET 0.000000 0.000000 0.000000
														}
													}
												}
											}
										}
										JOINT LeftHandIndex1
										{
											OFFSET 7.924831 -0.457527 2.345128
											CHANNELS 3 Xrotation Yrotation Zrotation
											JOINT LeftHandIndex2
											{
												OFFSET 3.643303 0.000000 0.000000
												CHANNELS 3 Xrotation Yrotation Zrotation
												JOINT LeftHandIndex3
												{
													OFFSET 3.810799 0.000000 0.000000
													CHANNELS 3 Xrotation Yrotation Zrotation
													JOINT LeftHandIndex4
													{
														OFFSET 2.403702 0.000000 0.000000
														CHANNELS 3 Xrotation Yrotation Zrotation
														End Site
														{
															OFFSET 0.000000 0.000000 0.000000
														}
													}
												}
											}
										}
										JOINT LeftHandMiddle1
										{
											OFFSET 8.563995 0.000000 -0.000000
											CHANNELS 3 Xrotation Yrotation Zrotation
											JOINT LeftHandMiddle2
											{
												OFFSET 3.861618 0.000000 0.000000
												CHANNELS 3 Xrotation Yrotation Zrotation
												JOINT LeftHandMiddle3
												{
													OFFSET 3.701603 0.000000 0.000000
													CHANNELS 3 Xrotation Yrotation Zrotation
													JOINT LeftHandMiddle4
													{
														OFFSET 2.322544 0.000000 0.000000
														CHANNELS 3 Xrotation Yrotation Zrotation
														End Site
														{
															OFFSET 0.000000 0.000000 0.000000
														}
													}
												}
											}
										}
										JOINT LeftHandRing1
										{
											OFFSET 8.426460 -0.424637 -3.286992
											CHANNELS 3 Xrotation Yrotation Zrotation
											JOINT LeftHandRing2
											{
												OFFSET 3.126408 0.000000 0.000000
												CHANNELS 3 Xrotation Yrotation Zrotation
												JOINT LeftHandRing3
												{
													OFFSET 3.085026 0.000000 0.000000
													CHANNELS 3 Xrotation Yrotation Zrotation
													JOINT LeftHandRing4
													{
														OFFSET 1.644005 0.000000 0.000000
														CHANNELS 3 Xrotation Yrotation Zrotation
														End Site
														{
															OFFSET 0.000000 0.000000 0.000000
														}
													}
												}
											}
										}
									}
								}
							}
						}
					}
					JOINT RightShoulder
					{
						OFFSET -2.196100 4.412496 0.070690
						CHANNELS 3 Xrotation Yrotation Zrotation
						JOINT RightShoulder_split
						{
							OFFSET -2.196100 4.412496 0.070690
							CHANNELS 3 Xrotation Yrotation Zrotation
							JOINT RightArm
							{
								OFFSET -8.771282 -2.981682 -0.094208
								CHANNELS 3 Xrotation Yrotation Zrotation
								JOINT RightForeArm
								{
									OFFSET -8.494598 0.000000 0.000000
									CHANNELS 3 Xrotation Yrotation Zrotation
									JOINT RightHand
									{
										OFFSET -18.483803 0.000000 0.000001
										CHANNELS 3 Xrotation Yrotation Zrotation
										JOINT RightHandThumb1
										{
											OFFSET -2.527351 -1.008072 2.575253
											CHANNELS 3 Xrotation Yrotation Zrotation
											JOINT RightHandThumb2
											{
												OFFSET -2.321518 -1.340328 1.340329
												CHANNELS 3 Xrotation Yrotation Zrotation
												JOINT RightHandThumb3
												{
													OFFSET -2.657753 -1.534454 1.534455
													CHANNELS 3 Xrotation Yrotation Zrotation
													JOINT RightHandThumb4
													{
														OFFSET -1.807510 -1.043568 1.043567
														CHANNELS 3 Xrotation Yrotation Zrotation
														End Site
														{
															OFFSET 0.000000 0.000000 0.000000
														}
													}
												}
											}
										}
										JOINT RightHandIndex1
										{
											OFFSET -8.811420 0.015533 2.887987
											CHANNELS 3 Xrotation Yrotation Zrotation
											JOINT RightHandIndex2
											{
												OFFSET -3.537502 0.000000 0.000000
												CHANNELS 3 Xrotation Yrotation Zrotation
												JOINT RightHandIndex3
												{
													OFFSET -3.356201 0.000000 0.000000
													CHANNELS 3 Xrotation Yrotation Zrotation
													JOINT RightHandIndex4
													{
														OFFSET -1.933098 0.000000 0.000000
														CHANNELS 3 Xrotation Yrotation Zrotation
														End Site
														{
															OFFSET 0.000000 0.000000 0.000000
														}
													}
												}
											}
										}
										JOINT RightHandMiddle1
										{
											OFFSET -8.178135 0.000000 0.000000
											CHANNELS 3 Xrotation Yrotation Zrotation
											JOINT RightHandMiddle2
											{
												OFFSET -3.901302 0.000000 0.000000
												CHANNELS 3 Xrotation Yrotation Zrotation
												JOINT RightHandMiddle3
												{
													OFFSET -3.909599 0.000000 0.000000
													CHANNELS 3 Xrotation Yrotation Zrotation
													JOINT RightHandMiddle4
													{
														OFFSET -2.376003 0.000000 0.000000
														CHANNELS 3 Xrotation Yrotation Zrotation
														End Site
														{
															OFFSET 0.000000 0.000000 0.000000
														}
													}
												}
											}
										}
										JOINT RightHandRing1
										{
											OFFSET -7.559013 0.014137 -2.865403
											CHANNELS 3 Xrotation Yrotation Zrotation
											JOINT RightHandRing2
											{
												OFFSET -3.449306 0.000000 0.000000
												CHANNELS 3 Xrotation Yrotation Zrotation
												JOINT RightHandRing3
												{
													OFFSET -3.362106 0.000000 0.000000
													CHANNELS 3 Xrotation Yrotation Zrotation
													JOINT RightHandRing4
													{
														OFFSET -2.076401 0.000000 0.000000
														CHANNELS 3 Xrotation Yrotation Zrotation
														End Site
														{
															OFFSET 0.000000 0.000000 0.000000
														}
													}
												}
											}
										}
									}
								}
							}
						}
					}
				}
			}
		}
	}
	JOINT LeftUpLeg
	{
		OFFSET 10.205400 -3.823500 0.155100
		CHANNELS 3 Xrotation Yrotation Zrotation
		JOINT LeftLeg
		{
			OFFSET 0.708757 -12.982077 0.567790
			CHANNELS 3 Xrotation Yrotation Zrotation
			JOINT LeftFoot
			{
				OFFSET -0.708756 -10.717838 -2.184338
				CHANNELS 3 Xrotation Yrotation Zrotation
				JOINT LeftToeBase
				{
					OFFSET 0.108149 -7.191104 7.560241
					CHANNELS 3 Xrotation Yrotation Zrotation
					JOINT LeftToe_End
					{
						OFFSET 0.070230 0.081724 4.490308
						CHANNELS 3 Xrotation Yrotation Zrotation
						End Site
						{
							OFFSET 0.000000 0.000000 0.000000
						}
					}
				}
			}
		}
	}
	JOINT RightUpLeg
	{
		OFFSET -10.205400 -3.823500 0.005500
		CHANNELS 3 Xrotation Yrotation Zrotation
		JOINT RightLeg
		{
			OFFSET -0.708756 -12.982134 0.610632
			CHANNELS 3 Xrotation Yrotation Zrotation
			JOINT RightFoot
			{
				OFFSET 0.708754 -10.717769 -1.945823
				CHANNELS 3 Xrotation Yrotation Zrotation
				JOINT RightToeBase
				{
					OFFSET -0.108140 -7.191069 7.372968
					CHANNELS 3 Xrotation Yrotation Zrotation
					JOINT RightToe_End
					{
						OFFSET -0.070227 0.081735 4.479403
						CHANNELS 3 Xrotation Yrotation Zrotation
						End Site
						{
							OFFSET 0.000000 0.000000 0.000000
						}
					}
				}
			}
		}
	}
}
MOTION
Frames: 6
Frame Time: 0.016667
-0.268896 28.598198 -0.034539 3.000806 -58.172202 6.374425 11.189901 0.063074 -2.592187 8.434587 0.027703 -5.592321 0.000000 0.000000 0.000000 8.457055 0.027853 -5.591869 -21.555652 25.063367 12.062568 -0.294038 25.465749 -3.208974 0.000000 0.000000 -0.000000 -6.221675 -11.503862 -4.023816 0.000000 0.000000 0.000000 -23.062185 9.568556 -36.639600 0.046109 -43.169128 -0.011151 22.743751 -5.685881 15.979286 -1.064250 -7.954924 8.490068 2.373398 19.986098 -2.038337 0.808196 1.237776 2.631729 0.000001 -0.000002 -0.000000 13.340887 -1.006678 10.682249 -0.167591 0.303384 -31.105610 -0.143402 0.303640 -32.256282 0.000002 0.000000 -0.000001 8.495447 -0.329570 -0.915313 0.231509 0.661199 -29.901861 0.444094 0.213442 -44.357007 -0.000002 -0.000000 -0.000000 6.111745 3.150905 -16.210969 0.047062 0.322401 -30.125478 0.408793 0.818968 -42.140662 0.000000 -0.000001 -0.000003 -5.488235 10.658262 2.466518 0.000000 0.000000 0.000000 -41.473814 -26.755565 30.079088 24.955421 111.862974 -23.308442 -8.702501 12.423041 -9.801969 0.265000 10.061112 -10.888488 1.383824 -17.412883 3.016298 3.342331 -13.253720 -8.262764 0.000003 -0.000000 0.000001 19.443607 11.174446 -13.340205 -0.118651 -0.322730 18.035594 -0.089900 -0.286598 23.256589 -0.000001 0.000001 -0.000001 4.320475 2.436952 -4.811726 0.349131 -0.461246 26.890318 0.467482 0.154070 39.044841 0.000000 0.000000 0.000001 -7.005631 -10.695139 5.719847 0.111881 -0.089204 26.155878 0.451290 -0.473556 33.265074 0.000003 -0.000001 0.000000 -37.008069 4.712528 33.451043 48.226829 -12.868898 -11.599429 -12.628876 -0.311791 -14.432980 -0.327625 1.238411 0.837241 0.000000 -0.000003 0.000000 -31.640954 -2.217353 -36.234427 60.434429 9.478172 -7.241524 -30.093270 -4.063177 28.285839 -0.322747 -0.997410 -0.837178 0.000000 0.000001 0.000000 
-0.268797 28.575840 -0.020655 2.463630 -58.165864 5.847540 11.179655 0.048574 -2.573901 8.413347 0.007693 -5.542168 0.000000 0.000000 0.000000 8.435799 0.007778 -5.541683 -21.652145 24.945120 12.088956 0.094810 25.159314 -2.954657 -0.000000 0.000000 0.000000 -6.261275 -11.506434 -4.015198 0.000000 0.000000 0.000000 -22.811119 9.698552 -36.516630 0.794426 -43.624111 0.229729 22.724106 -5.775194 15.786068 -1.337187 -8.592357 8.462088 2.372290 19.986674 -2.038311 0.808493 1.237310 2.632235 0.000002 0.000000 0.000001 13.509670 -1.097526 9.424765 -0.159038 0.305437 -31.104053 -0.127822 0.288295 -32.095967 -0.000001 -0.000000 -0.000001 8.477592 -0.230325 -1.799015 0.234807 0.664035 -29.734344 0.440522 0.219793 -44.354043 -0.000000 0.000000 -0.000001 6.088933 3.437399 -16.790625 0.051252 0.330250 -29.912100 0.415123 0.821430 -42.143288 -0.000000 0.000001 0.000003 -5.513954 10.443177 2.326511 0.000000 0.000000 0.000000 -40.253474 -26.263788 30.874309 22.710806 111.299483 -21.321716 -8.758537 12.223511 -9.454588 -0.163838 10.339067 -11.464010 1.370530 -17.420150 3.013309 3.335269 -13.256176 -8.261523 0.000002 -0.000000 -0.000000 19.534080 10.739036 -14.196812 -0.102119 -0.326647 17.430837 -0.085087 -0.287751 22.639642 -0.000000 0.000000 -0.000001 4.417744 2.218612 -5.481774 0.352845 -0.461293 26.461888 0.458130 0.156515 38.606353 -0.000002 0.000000 0.000001 -6.982944 -10.920054 5.218401 0.085189 -0.090090 25.880164 0.452406 -0.467622 32.988028 0.000003 0.000001 0.000001 -36.833233 4.606529 33.508006 48.560753 -12.979169 -11.511631 -12.848288 -0.241436 -14.442503 -0.327781 1.244770 0.837246 0.000000 -0.000002 0.000000 -31.580414 -2.631398 -36.689030 60.436587 10.139665 -6.808136 -30.125666 -3.829741 27.743831 -0.338878 -0.991450 -0.881513 0.000000 -0.000001 0.000000 
-0.296456 28.511929 0.027182 1.743981 -58.104747 5.146960 11.140867 0.012629 -2.515258 8.334205 -0.045754 -5.404250 0.000000 0.000000 0.000000 8.356664 -0.045664 -5.403786 -21.836682 24.626030 12.153085 0.665321 24.715289 -2.781584 0.000000 -0.000000 0.000001 -6.328840 -11.488488 -3.983640 0.000000 0.000000 0.000000 -22.131667 10.073043 -36.144022 2.769393 -44.886890 0.926420 22.664441 -6.014910 15.253928 -1.443760 -9.455556 7.932129 2.372308 19.986675 -2.038365 0.808462 1.237291 2.632249 -0.000001 0.000002 -0.000000 13.845183 -1.532805 7.580807 -0.159349 0.304548 -30.882861 -0.127917 0.288146 -32.056888 -0.000001 0.000000 -0.000001 8.524447 -0.343989 -3.219833 0.234600 0.663876 -29.653010 0.440530 0.219794 -44.354029 -0.000000 0.000001 -0.000001 6.136548 3.595758 -17.915516 0.051090 0.329944 -29.853596 0.415448 0.821309 -42.230240 0.000001 -0.000000 0.000003 -5.548061 9.866013 1.937109 0.000000 0.000000 0.000000 -37.030543 -24.874084 32.856922 15.981611 109.909171 -15.220771 -8.898747 11.688157 -8.523753 -1.286801 11.106075 -12.958736 1.370517 -17.420133 3.013316 3.335262 -13.256168 -8.261518 -0.000001 0.000002 -0.000000 19.732825 9.623665 -16.324685 -0.104582 -0.322135 15.920314 -0.092173 -0.285220 21.097353 0.000001 -0.000002 -0.000003 4.635082 1.638522 -7.128998 0.347184 -0.458699 25.403413 0.460889 0.154120 37.520913 0.000001 0.000001 0.000001 -6.943914 -11.513890 4.011810 0.085685 -0.087031 25.221602 0.446250 -0.473902 32.326360 -0.000004 -0.000001 -0.000000 -36.643104 4.384445 33.636445 49.275621 -13.237247 -11.491660 -13.365448 -0.145978 -14.373010 -0.327768 1.244753 0.837239 -0.000000 0.000001 -0.000000 -31.260970 -3.027109 -37.176102 60.597008 10.741687 -6.492695 -30.407661 -3.743342 27.425054 -0.356230 -0.991256 -0.912689 0.000000 0.000003 0.000000 
-0.346659 28.428848 0.100989 0.898399 -57.986257 4.318827 11.075974 -0.039593 -2.425100 8.202128 -0.124065 -5.198297 0.000000 0.000000 0.000000 8.224617 -0.123932 -5.197838 -22.026528 24.153021 12.233264 1.675682 24.083961 -2.871055 0.000001 0.000001 0.000000 -6.417287 -11.419030 -3.918470 0.000000 0.000000 0.000000 -21.132137 10.674329 -35.524483 5.610371 -46.795470 2.096794 22.562475 -6.361047 14.453070 -1.492403 -10.414545 7.157427 2.372305 19.986684 -2.038303 0.808470 1.237276 2.632223 -0.000004 -0.000002 -0.000006 14.236172 -2.165270 5.410905 -0.159342 0.304513 -30.877134 -0.127869 0.288248 -32.084424 -0.000000 -0.000000 -0.000001 8.587914 -0.569231 -4.948592 0.234563 0.663853 -29.620205 0.439360 0.220350 -44.070590 -0.000001 0.000000 0.000001 6.219780 3.684107 -19.350754 0.051108 0.329976 -29.860235 0.415815 0.821160 -42.343724 0.000000 0.000000 0.000002 -5.599945 9.021867 1.345358 0.000000 0.000000 0.000000 -32.495100 -22.695878 35.348155 4.343898 108.342120 -4.332177 -9.075125 10.910034 -7.177495 -2.857454 12.259154 -15.019024 1.370547 -17.420170 3.013328 3.335204 -13.256169 -8.261573 0.000004 0.000000 -0.000000 19.872234 8.134581 -19.053713 -0.107690 -0.316129 13.960255 -0.101243 -0.281481 19.092909 -0.000001 0.000001 0.000000 4.859958 0.812331 -9.209664 0.340105 -0.454425 24.055612 0.461393 0.148735 36.133859 -0.000001 0.000000 0.000000 -6.928765 -12.352437 2.546300 0.086262 -0.083354 24.433236 0.438770 -0.481224 31.533539 0.000002 -0.000002 0.000001 -36.442010 4.168245 33.873531 50.136498 -13.681055 -11.588633 -14.019884 -0.059577 -14.165432 -0.327751 1.244727 0.837228 0.000000 -0.000000 0.000000 -30.678765 -3.422541 -37.602445 60.795350 11.185158 -6.309559 -30.840299 -3.769539 27.289698 -0.395349 -0.990272 -0.981272 0.000000 -0.000001 -0.000000 
-0.415150 28.344486 0.190982 -0.015715 -57.808993 3.410795 10.986881 -0.102322 -2.312693 8.021425 -0.218861 -4.943916 0.000000 0.000000 0.000000 8.043898 -0.218788 -4.943426 -22.139455 23.571241 12.309608 3.256180 23.328153 -2.898962 -0.000000 0.000001 -0.000001 -6.517731 -11.266679 -3.808853 0.000000 0.000000 0.000000 -19.916948 11.490703 -34.664255 8.966800 -49.187894 3.756256 22.416148 -6.768635 13.453267 -1.464903 -11.408697 6.107608 2.372317 19.986715 -2.038316 0.808458 1.237293 2.632250 -0.000002 0.000001 -0.000002 14.656379 -3.033295 2.956105 -0.159209 0.304903 -30.964857 -0.127584 0.288747 -32.222445 0.000000 -0.000000 0.000000 8.656532 -0.945750 -6.983265 0.234678 0.663920 -29.676605 0.439644 0.220225 -44.132058 -0.000001 -0.000001 -0.000001 6.338253 3.647308 -21.124076 0.051468 0.330559 -29.965140 0.416286 0.820979 -42.473408 -0.000001 0.000001 0.000001 -5.677149 8.006192 0.598007 0.000000 0.000000 0.000000 -27.295041 -19.926474 37.715478 -12.036798 107.511761 11.420425 -9.243325 9.984287 -5.582227 -4.641256 13.688737 -17.288261 1.370497 -17.420135 3.013333 3.335249 -13.256198 -8.261569 0.000001 -0.000002 -0.000002 19.877963 6.576146 -21.728433 -0.110425 -0.310510 12.006842 -0.110075 -0.277153 17.089427 -0.000001 0.000001 -0.000001 5.013286 -0.129832 -11.184221 0.333361 -0.450115 22.759082 0.461820 0.143639 34.790426 -0.000002 -0.000000 -0.000001 -6.944785 -13.302884 1.268551 0.086841 -0.080340 23.767820 0.433395 -0.486495 30.863135 0.000001 0.000001 0.000000 -36.211976 3.951631 34.123154 51.044968 -14.189435 -11.656603 -14.735775 0.024951 -13.939187 -0.327765 1.244802 0.837234 -0.000000 -0.000002 -0.000000 -29.811812 -3.785619 -37.877620 60.932111 11.385459 -6.253648 -31.352552 -3.898070 27.349881 -0.459383 -0.987810 -1.094234 0.000000 0.000001 -0.000000 
-0.497512 28.275841 0.287632 -0.941107 -57.572791 2.470040 10.873051 -0.170191 -2.186782 7.791968 -0.321401 -4.660421 0.000000 0.000000 0.000000 7.814444 -0.321278 -4.659952 -22.076995 22.928627 12.360631 5.041280 22.487703 -2.401116 -0.000000 -0.000001 0.000001 -6.612191 -10.999734 -3.645067 0.000000 0.000000 0.000000 -18.588517 12.512378 -33.564263 12.438343 -51.915035 5.832354 22.225874 -7.192565 12.324682 -1.349462 -12.354101 4.786807 2.372319 19.986650 -2.038335 0.808454 1.237287 2.632255 -0.000003 -0.000002 0.000001 15.063880 -4.151568 0.292979 -0.158934 0.305691 -31.180247 -0.127008 0.289706 -32.510816 0.000001 0.000000 0.000000 8.707619 -1.499574 -9.289751 0.235108 0.664256 -29.859917 0.440447 0.219844 -44.339686 -0.000001 0.000000 -0.000000 6.477753 3.437000 -23.229571 0.052304 0.331711 -30.192428 0.416703 0.820812 -42.602110 0.000001 -0.000000 0.000001 -5.772204 6.915196 -0.258768 0.000000 0.000000 0.000000 -21.958201 -16.906535 39.510667 -30.314866 108.275424 29.376094 -9.373822 9.008104 -3.902535 -5.257483 14.551879 -17.470464 1.370516 -17.420152 3.013313 3.335232 -13.256191 -8.261547 0.000003 0.000001 0.000002 19.909749 6.825853 -22.198412 -0.110828 -0.309933 11.645546 -0.112372 -0.276497 16.700612 0.000000 -0.000004 0.000001 5.095065 0.157809 -11.274911 0.332181 -0.449704 22.566344 0.459741 0.141239 34.537640 0.000001 -0.000002 0.000002 -6.807978 -13.116167 1.535468 0.086791 -0.080391 23.783559 0.432456 -0.487134 30.846476 0.000002 0.000000 -0.000001 -35.953559 3.779054 34.386908 51.834043 -14.756613 -11.708672 -15.398299 0.088245 -13.688923 -0.327757 1.244760 0.837236 -0.000000 0.000001 -0.000000 -28.663258 -4.111737 -37.924318 60.915916 11.275207 -6.335664 -31.865838 -4.116608 27.615891 -0.600246 -0.982254 -1.225668 0.000000 -0.000001 0.000000 
